<svg xmlns="http://www.w3.org/2000/svg" data-name="Layer 1" viewBox="0 0 512 512" id="confirm-order"><path fill="#ffc570" d="M329.39 142.72v32.45a9.997 9.997 0 0 1-10 10H17.5a9.997 9.997 0 0 1-10-10v-32.45a10.004 10.004 0 0 1 10-10h301.89a10.004 10.004 0 0 1 10 10Z"></path><path fill="#ffcd85" d="M22.589 185.173h293.15v230.01a30 30 0 0 1-30 30H52.588a30 30 0 0 1-30-30v-230.01Z"></path><path fill="#ffe966" d="M157.187 287.112h23.234a57 57 0 0 1 57 57v19.161H100.187v-19.161a57 57 0 0 1 57-57Z"></path><path fill="#ffe236" d="M180.421 287.112h-23.234c-1.137 0-2.263.042-3.383.108a56.997 56.997 0 0 1 53.617 56.892v19.161h30v-19.161a57 57 0 0 0-57-57Z"></path><path fill="#ffed80" d="M239.383 392.732H97.875a15.019 15.019 0 0 1-14.948-15.089 15.019 15.019 0 0 1 14.948-15.088h141.508a15.019 15.019 0 0 1 14.948 15.088 15.019 15.019 0 0 1-14.948 15.089Z"></path><path fill="#ffe966" d="M239.383 362.555h-30a15.09 15.09 0 0 1 0 30.177h30a15.09 15.09 0 0 0 0-30.177Z"></path><ellipse cx="168.445" cy="269.508" fill="#ffe966" rx="17.244" ry="17.603"></ellipse><path fill="#ffe236" d="M168.445 251.905a16.857 16.857 0 0 0-7.5 1.77 17.735 17.735 0 0 1 0 31.666 16.855 16.855 0 0 0 7.5 1.77 17.607 17.607 0 0 0 0-35.206Z"></path><path fill="#ffc166" d="M252.09 141.18a84.365 84.365 0 0 1-12.3 43.99 83.226 83.226 0 0 1-142.7 0 84.954 84.954 0 0 1-11.87-52.45h166.45a84.366 84.366 0 0 1 .42 8.46Z"></path><path fill="#ffb74e" d="M252.09 141.18a84.365 84.365 0 0 1-12.3 43.99H97.09a84.954 84.954 0 0 1-11.87-52.45h166.45a84.366 84.366 0 0 1 .42 8.46Z"></path><ellipse cx="168.445" cy="141.183" fill="#63ea86" rx="73.647" ry="74.365"></ellipse><path fill="#3ce568" d="M168.445 66.817a73.266 73.266 0 0 0-15 1.548 74.53 74.53 0 0 1 0 145.635 73.266 73.266 0 0 0 15 1.548c40.674 0 73.647-33.295 73.647-74.365s-32.973-74.366-73.647-74.366Z"></path><path fill="#fff8cc" d="M309.45 430.166V188.848a15 15 0 0 1 15-15H489.5a15 15 0 0 1 15 15v207.784l-48.55 48.546-131.502-.012a15 15 0 0 1-14.999-15Z"></path><path fill="#ffed80" d="M455.95 445.183v-48.551h48.55"></path><path fill="#b3e0ff" d="M459.5 226.447H354.45a7.5 7.5 0 0 1 0-15H459.5a7.5 7.5 0 0 1 0 15zm-45 45h-60.05a7.5 7.5 0 0 1 0-15h60.05a7.5 7.5 0 0 1 0 15zm45 0h-15.05a7.5 7.5 0 0 1 0-15h15.05a7.5 7.5 0 0 1 0 15zm-45 30h-60.05a7.5 7.5 0 0 1 0-15h60.05a7.5 7.5 0 0 1 0 15zm45 0h-15.05a7.5 7.5 0 0 1 0-15h15.05a7.5 7.5 0 0 1 0 15zm-45 30h-60.05a7.5 7.5 0 0 1 0-15h60.05a7.5 7.5 0 0 1 0 15zm45 0h-15.05a7.5 7.5 0 0 1 0-15h15.05a7.5 7.5 0 0 1 0 15zm-45 30h-60.05a7.5 7.5 0 0 1 0-15h60.05a7.5 7.5 0 0 1 0 15zm45 0h-15.05a7.5 7.5 0 0 1 0-15h15.05a7.5 7.5 0 0 1 0 15z"></path><path fill="#fff" d="M151.922 174.002a7.5 7.5 0 0 1-5.328-2.222l-17.069-17.23a7.5 7.5 0 0 1 10.657-10.556l11.74 11.852 44.426-44.844a7.5 7.5 0 0 1 10.656 10.557L157.25 171.78a7.5 7.5 0 0 1-5.328 2.222Z"></path></svg>