<svg xmlns="http://www.w3.org/2000/svg" width="32" height="32" enable-background="new 0 0 32 32" viewBox="0 0 32 32" id="money"><path d="M30.598 19.505c-.4-.699-1.048-1.197-1.823-1.404-.775-.207-1.583-.096-2.229.281l-5.265 2.691C20.729 20.422 19.917 20 19 20h-8c-1.417 0-2.88.771-3.861 2H6c0-.552-.448-1-1-1H2c-.552 0-1 .448-1 1v8c0 .552.448 1 1 1h3c.552 0 1-.448 1-1h11c.741 0 1.767-.308 2.324-.68l10.166-5.716.1-.064C30.995 22.514 31.4 20.892 30.598 19.505zM4 29H3v-6h1V29zM28.454 21.893l-10.171 5.721C17.988 27.809 17.353 28 17 28H6v-4h1.65c.34 0 .657-.173.841-.459C9.084 22.619 10.092 22 11 22h8c.552 0 1 .449 1 1s-.448 1-1 1h-6c-.552 0-1 .448-1 1s.448 1 1 1h6c1.654 0 3-1.346 3-3 0-.016-.005-.031-.005-.046l5.509-2.817c.231-.135.501-.171.754-.104.257.069.472.234.607.471C29.219 21.115 28.848 21.591 28.454 21.893zM4 17h24c.553 0 1-.448 1-1V2c0-.552-.447-1-1-1H4C3.448 1 3 1.448 3 2v14C3 16.552 3.448 17 4 17zM8.899 3h14.203C23.5 4.956 25.044 6.5 27 6.899v4.202C25.044 11.5 23.5 13.044 23.102 15H8.899C8.5 13.044 6.956 11.5 5 11.101V6.899C6.956 6.5 8.5 4.956 8.899 3zM5 13.184C5.847 13.486 6.514 14.153 6.816 15H5V13.184zM25.185 15c.302-.847.968-1.514 1.815-1.816V15H25.185zM27 4.815C26.152 4.514 25.486 3.847 25.185 3H27V4.815zM6.816 3C6.514 3.847 5.847 4.514 5 4.816V3H6.816z"></path><path d="M16,14c2.757,0,5-2.243,5-5s-2.243-5-5-5s-5,2.243-5,5S13.243,14,16,14z M16,6c1.654,0,3,1.346,3,3s-1.346,3-3,3
			s-3-1.346-3-3S14.346,6,16,6z"></path></svg>