<svg xmlns="http://www.w3.org/2000/svg" xmlns:xlink="http://www.w3.org/1999/xlink" width="32" height="32" id="order"><defs><linearGradient id="a"><stop offset="0" stop-color="#000092"></stop><stop offset="1" stop-color="#ff00f3"></stop></linearGradient><linearGradient id="b" x1="2.982" x2="24" y1="16.5" y2="16.5" gradientUnits="userSpaceOnUse" xlink:href="#a"></linearGradient></defs><path fill="url(#b)" fill-rule="evenodd" d="M3.457 5a.5.5 0 0 0 .05 1h2.585l2.924 15.594a.5.5 0 0 0 .492.406h15.078a.5.5 0 0 0 .014.002.5.5 0 0 0 .05-.002h.163c.696 0 1.187.47 1.187 1s-.491 1-1.188 1H9.406a.5.5 0 1 0 0 1h15.407C25.986 25 27 24.133 27 23c0-1.012-.81-1.808-1.82-1.967L26.994 9.58a.5.5 0 0 0-.494-.578H7.672l-.674-3.594A.5.5 0 0 0 6.508 5h-3a.5.5 0 0 0-.051 0zM22.5 25c-.823 0-1.5.677-1.5 1.5s.677 1.5 1.5 1.5 1.5-.677 1.5-1.5-.677-1.5-1.5-1.5zm-10 0c-.823 0-1.5.677-1.5 1.5s.677 1.5 1.5 1.5 1.5-.677 1.5-1.5-.677-1.5-1.5-1.5zM7.86 10.002h3.181L11.207 12H8.234l-.375-1.998zm4.183 0H15V12h-2.791l-.166-1.998zm3.957 0h2V12h-2v-1.998zm3 0h2.957L21.791 12H19v-1.998zm3.959 0h2.955L25.598 12h-2.805l.166-1.998zM8.422 13h2.869l.166 2h-2.66l-.375-2zm3.871 0H15v2h-2.541l-.166-2zM16 13h2v2h-2v-2zm3 0h2.707l-.166 2H19v-2zm3.709 0h2.73l-.316 2h-2.58l.166-2zM8.984 16h2.557l.166 2H9.359l-.375-2zm3.559 0H15v2h-2.291l-.166-2zM16 16h2v2h-2v-2zm3 0h2.457l-.166 2H19v-2zm3.459 0h2.506l-.317 2h-2.355l.166-2zM9.547 19h2.242l.168 2H9.922l-.375-2zm3.246 0H15v2h-2.041l-.166-2zM16 19h2v2h-2v-2zm3 0h2.207l-.166 2H19v-2zm3.21 0h2.28l-.318 2h-2.129l.168-2zm-9.71 7c.282 0 .5.218.5.5 0 .282-.218.5-.5.5a.493.493 0 0 1-.5-.5c0-.282.218-.5.5-.5zm10 0c.282 0 .5.218.5.5 0 .282-.218.5-.5.5a.493.493 0 0 1-.5-.5c0-.282.218-.5.5-.5z" color="#000" font-family="sans-serif" font-weight="400" overflow="visible" style="line-height:normal;text-indent:0;text-align:start;text-decoration-line:none;text-decoration-style:solid;text-decoration-color:#000;text-transform:none;block-progression:tb;isolation:auto;mix-blend-mode:normal"></path></svg>